HIERARCHY
ROOT hip
{
	OFFSET 0.000000 0.000000 0.000000 
	CHANNELS 6 Xposition Yposition Zposition Xrotation Zrotation Yrotation
	JOINT abdomen
	{
		OFFSET 0.000000 3.402643 0.000000 
		CHANNELS 3 Xrotation Zrotation Yrotation
		JOINT chest
		{
			OFFSET 0.000000 8.438565 -0.680529 
			CHANNELS 3 Xrotation Zrotation Yrotation
			JOINT neck
			{
				OFFSET 0.000000 10.207942 -0.272212 
				CHANNELS 3 Xrotation Zrotation Yrotation
				JOINT head
				{
					OFFSET 0.000000 3.130431 0.000000 
					CHANNELS 3 Xrotation Zrotation Yrotation
					End Site
					{
						OFFSET 0.000000 3.130435 0.000000 
					}
				}
			}
			JOINT lCollar
			{
				OFFSET 3.470700 6.669187 -0.816635 
				CHANNELS 3 Yrotation Zrotation Xrotation
				JOINT lShldr
				{
					OFFSET 3.198488 0.000000 0.000000 
					CHANNELS 3 Zrotation Yrotation Xrotation
					JOINT lForeArm
					{
						OFFSET 10.139888 0.000000 0.000000 
						CHANNELS 3 Yrotation Zrotation Xrotation
						JOINT lHand
						{
							OFFSET 8.370511 0.000000 0.000000 
							CHANNELS 3 Zrotation Yrotation Xrotation
							End Site
							{
								OFFSET 4.083176 0.000000 0.000000 
							}
						}
					}
				}
			}
			JOINT rCollar
			{
				OFFSET -3.470700 6.669187 -0.816635 
				CHANNELS 3 Yrotation Zrotation Xrotation
				JOINT rShldr
				{
					OFFSET -3.198488 0.000000 0.000000 
					CHANNELS 3 Zrotation Yrotation Xrotation
					JOINT rForeArm
					{
						OFFSET -10.139888 0.000000 0.000000 
						CHANNELS 3 Yrotation Zrotation Xrotation
						JOINT rHand
						{
							OFFSET -8.370511 0.000000 0.000000 
							CHANNELS 3 Zrotation Yrotation Xrotation
							End Site
							{
								OFFSET -4.083176 0.000000 0.000000 
							}
						}
					}
				}
			}
		}
	}
	JOINT lThigh
	{
		OFFSET 5.308129 -1.633274 1.361059 
		CHANNELS 3 Xrotation Zrotation Yrotation
		JOINT lShin
		{
			OFFSET -2.041588 -20.007561 0.000000 
			CHANNELS 3 Xrotation Zrotation Yrotation
			JOINT lFoot
			{
				OFFSET 0.000000 -19.190928 -1.224953 
				CHANNELS 3 Xrotation Yrotation Zrotation
				End Site
				{
					OFFSET 0.000000 -2.449906 4.627600 
				}
			}
		}
	}
	JOINT rThigh
	{
		OFFSET -5.308129 -1.633274 1.361059 
		CHANNELS 3 Xrotation Zrotation Yrotation
		JOINT rShin
		{
			OFFSET 2.041588 -20.007561 0.000000 
			CHANNELS 3 Xrotation Zrotation Yrotation
			JOINT rFoot
			{
				OFFSET 0.000000 -19.190928 -1.224953 
				CHANNELS 3 Xrotation Yrotation Zrotation
				End Site
				{
					OFFSET 0.000000 -2.449906 4.627600 
				}
			}
		}
	}
}
MOTION
Frames: 9
Frame Time: 0.033333
-0.711233 19.281742 3.417407 -5.507905 0.136719 -0.039062 45.206348 4.240389 3.447575 9.744081 -0.249553 -10.625112 -8.544920 -0.009766 -0.009767 13.129242 -18.536858 29.676510 1.992188 -2.001953 0.000341 -55.382671 7.916320 40.832706 -69.722931 -0.519876 8.764462 -11.796041 -18.468355 -86.968887 -2.001953 1.992188 0.000000 76.342834 41.948303 9.775265 85.344475 0.489797 8.933380 -14.839933 -3.658402 -58.693230 -96.822487 5.292614 -3.466837 121.783173 4.564805 -3.415234 -20.563938 -1.135037 -5.459776 -28.386286 -10.184981 10.919512 110.855896 -3.993232 3.743624 -78.400055 -8.279704 11.545339 
-0.711233 19.266685 3.417407 -5.507905 0.136719 -0.039062 45.206348 4.240389 3.447575 9.744081 -0.249553 -10.625112 -8.544920 -0.009766 -0.009767 13.198076 -18.341969 29.273937 1.992188 -2.001953 0.000341 -54.747143 8.854248 40.080864 -70.792206 -0.514432 8.775803 -11.716443 -18.138754 -86.253807 -2.001953 1.992188 0.000000 76.602592 41.917187 9.811972 85.344475 0.489797 8.933380 -14.832291 -3.688065 -58.635891 -96.841248 5.292614 -3.456450 121.793068 4.582796 -3.403008 -20.565691 -1.123843 -5.453119 -28.412210 -10.175062 10.937795 110.875710 -3.974487 3.751005 -78.410370 -8.283276 11.538769 
-0.711233 19.264187 3.417407 -5.507905 0.136719 -0.039062 45.206348 4.240389 3.447575 9.744081 -0.249553 -10.625112 -8.544920 -0.009766 -0.009767 13.285090 -18.136648 28.703966 1.992188 -2.001953 0.000341 -53.735912 10.480226 39.349228 -72.367355 -0.508934 8.792100 -11.562329 -17.672132 -85.199020 -2.001953 1.992188 0.000000 76.852295 41.900139 9.902793 85.334747 0.479996 8.933806 -14.831280 -3.703460 -58.563400 -96.860733 5.292542 -3.455246 121.802574 4.592502 -3.405026 -20.533751 -1.133556 -5.469158 -28.423449 -10.175266 10.947556 110.895248 -3.974486 3.751172 -78.411789 -8.285044 11.521063 
-0.711233 19.261686 3.417407 -5.507905 0.136719 -0.039062 45.206348 4.240389 3.447575 9.744081 -0.249553 -10.625112 -8.544920 -0.009766 -0.009767 13.371975 -17.935541 28.137144 1.992188 -2.001953 0.000341 -52.750179 12.125179 38.642178 -73.938896 -0.512610 8.810113 -11.399622 -17.198378 -84.154495 -2.001953 1.992188 0.000000 77.103554 41.871830 9.992145 85.324959 0.489727 8.924463 -14.837726 -3.718713 -58.496609 -96.872040 5.302762 -3.483384 121.811859 4.589420 -3.419784 -20.514309 -1.126479 -5.475472 -28.433779 -10.175344 10.947626 110.914795 -3.974485 3.751339 -78.410408 -8.292388 11.538651 
-0.711233 19.259184 3.417407 -5.507905 0.136719 -0.039062 45.206348 4.240389 3.447575 9.744081 -0.249553 -10.625112 -8.544920 -0.009766 -0.009767 13.481175 -17.712845 27.393463 1.992188 -2.001953 0.000341 -51.562130 13.995851 37.895699 -75.841530 -0.502973 8.829990 -11.238898 -16.731020 -83.095673 -2.001953 1.992188 0.000000 77.334404 41.852291 10.156558 85.315193 0.489692 8.924888 -14.826778 -3.743373 -58.421703 -96.903305 5.282902 -3.489472 121.812241 4.574512 -3.417064 -20.514418 -1.131296 -5.467171 -28.433779 -10.175347 10.947626 110.924568 -3.974484 3.751422 -78.409874 -8.288291 11.545280 
-0.711233 19.256689 3.417407 -5.507905 0.136719 -0.039062 45.206348 4.240389 3.447575 9.744081 -0.249553 -10.625112 -8.544920 -0.009766 -0.009767 13.588210 -17.492216 26.652731 1.992188 -2.001953 0.000341 -50.399704 15.888986 37.182835 -77.738937 -0.512073 8.854150 -11.070189 -16.265999 -82.047096 -2.001953 1.992188 0.000000 77.577995 41.830494 10.320944 85.305435 0.489658 8.925312 -14.822422 -3.780183 -58.348354 -96.913048 5.282867 -3.488868 121.812859 4.564832 -3.405537 -20.513044 -1.134421 -5.480241 -28.433779 -10.175344 10.947626 110.934341 -3.974480 3.751512 -78.418472 -8.296309 11.560808 
-0.711233 19.257969 3.417407 -5.507905 0.136719 -0.039062 45.206348 4.240389 3.447575 9.744081 -0.249553 -10.625112 -8.544920 -0.009766 -0.009767 13.710864 -17.102007 25.262011 1.992188 -2.001953 0.000341 -49.304703 17.188223 36.300541 -79.746948 -0.511235 8.871063 -11.042090 -16.074606 -81.599815 -2.001953 1.992188 0.000000 77.790825 41.811920 10.581285 85.295708 0.479857 8.915973 -14.829742 -3.783369 -58.286396 -96.904022 5.283344 -3.497857 121.792778 4.568882 -3.417681 -20.523600 -1.135272 -5.469992 -28.453526 -10.175388 10.938093 110.933853 -3.984109 3.756991 -78.408661 -8.296458 11.561265 
-0.711233 19.259253 3.417407 -5.507905 0.136719 -0.039062 45.206348 4.240389 3.447575 9.744081 -0.249553 -10.625112 -8.544920 -0.009766 -0.009767 13.823605 -16.709793 23.867672 1.992188 -2.001953 0.000341 -48.228302 18.507713 35.426033 -81.759056 -0.511120 8.883982 -11.021213 -15.883166 -81.152519 -2.001953 1.992188 0.000000 78.018112 41.780941 10.856126 85.295677 0.489623 8.915972 -14.827124 -3.795733 -58.222034 -96.894272 5.283381 -3.498459 121.772507 4.568826 -3.436707 -20.506123 -1.126997 -5.453103 -28.473364 -10.175080 10.928520 110.943489 -3.993190 3.753833 -78.410568 -8.284604 11.536475 
-0.711233 19.260469 3.417407 -5.507905 0.136719 -0.039062 45.206348 4.240389 3.447575 9.744081 -0.249553 -10.625112 -8.544920 -0.009766 -0.009767 13.899478 -16.021133 21.384674 1.992188 -2.001953 0.000341 -47.474781 18.455400 34.194775 -83.631462 -0.519060 8.908519 -11.313469 -16.205042 -81.933395 -2.001953 1.992188 0.000000 78.202950 41.758850 11.229762 85.285912 0.489588 8.916396 -14.835289 -3.813015 -58.181042 -96.904022 5.283346 -3.497856 121.772858 4.568850 -3.427294 -20.514072 -1.138818 -5.460600 -28.473364 -10.175081 10.928520 110.943489 -3.993189 3.753834 -78.401436 -8.272491 11.527584 
